ply
format ascii 1.0
comment Created by Blender 2.93.3 - www.blender.org
element vertex 446
property float x
property float y
property float z
element face 820
property list uchar uint vertex_indices
end_header
0.022810 -0.007262 -0.019242
0.020206 -0.014574 0.005182
0.019385 -0.013981 -0.019242
0.014056 -0.019309 -0.019242
0.014649 -0.020135 0.005182
0.007333 -0.022739 -0.019242
-0.000113 -0.024925 0.005182
-0.000113 -0.023916 -0.019242
-0.007875 -0.023703 0.005182
-0.007564 -0.022739 -0.019242
-0.014876 -0.020135 0.005182
-0.014283 -0.019309 -0.019242
-0.020432 -0.014574 0.005182
-0.019612 -0.013981 -0.019242
-0.023036 -0.007262 -0.019242
-0.025228 0.000189 0.005182
-0.024218 0.000189 -0.019242
-0.024000 0.007945 0.005182
-0.023036 0.007640 -0.019242
-0.020432 0.014952 0.005182
-0.019612 0.014358 -0.019242
-0.014876 0.020503 0.005182
-0.014283 0.019688 -0.019242
-0.007875 0.024071 0.005182
-0.007564 0.023116 -0.019242
-0.000113 0.024293 -0.019242
-0.000113 0.025303 0.005182
0.007333 0.023116 -0.019242
0.007648 0.024071 0.005182
0.014056 0.019688 -0.019242
0.014649 0.020503 0.005182
0.019385 0.014358 -0.019242
0.020206 0.014952 0.005182
0.022810 0.007640 -0.019242
0.023773 0.007945 0.005182
0.023987 0.000189 -0.019242
0.025001 0.000189 0.005182
-0.000113 0.000189 -0.020572
0.012935 -0.004056 0.008843
-0.000113 -0.013527 0.008843
0.010984 -0.007873 0.008843
0.007949 -0.010914 0.008843
0.004127 -0.012860 0.008843
-0.004353 -0.012860 0.008843
-0.008176 -0.010914 0.008843
-0.011215 -0.007873 0.008843
-0.013162 -0.004047 0.008843
-0.013834 0.000189 0.008843
-0.013162 0.004424 0.008843
-0.011211 0.008251 0.008843
-0.008176 0.011291 0.008843
-0.004353 0.013237 0.008843
-0.000113 0.013905 0.008843
0.004127 0.013237 0.008843
0.007949 0.011291 0.008843
0.010984 0.008251 0.008843
0.012935 0.004433 0.008843
0.013603 0.000189 0.008843
0.019946 -0.006326 0.015112
0.010984 -0.007873 0.015112
0.016948 -0.012211 0.015112
0.007949 -0.010914 0.015112
0.012286 -0.016872 0.015112
0.006402 -0.019875 0.015112
0.004127 -0.012860 0.015112
-0.000113 -0.020903 0.015112
-0.004353 -0.012860 0.015112
-0.006633 -0.019875 0.015112
-0.008176 -0.010914 0.015112
-0.012513 -0.016872 0.015112
-0.017174 -0.012211 0.015112
-0.011211 -0.007873 0.015112
-0.020172 -0.006326 0.015112
-0.013834 0.000189 0.015112
-0.021206 0.000189 0.015112
-0.020172 0.006704 0.015112
-0.011211 0.008251 0.015112
-0.017174 0.012589 0.015112
-0.008176 0.011291 0.015112
-0.012513 0.017249 0.015112
-0.006633 0.020244 0.015112
-0.004353 0.013237 0.015112
-0.000113 0.021281 0.015112
0.004122 0.013237 0.015112
0.006402 0.020244 0.015112
0.007949 0.011291 0.015112
0.012286 0.017249 0.015112
0.016948 0.012589 0.015112
0.010984 0.008251 0.015112
0.019946 0.006704 0.015112
0.013607 0.000189 0.015107
0.020979 0.000189 0.015112
0.012935 -0.004047 0.015112
-0.000113 -0.013527 0.015112
-0.013162 -0.004047 0.015112
-0.013162 0.004424 0.015112
-0.000113 0.013905 0.015112
0.012935 0.004424 0.015112
-0.012513 -0.016872 0.005182
-0.017174 -0.012211 0.005182
-0.006633 -0.019875 0.005182
-0.000113 -0.020903 0.005182
0.006402 -0.019875 0.005182
0.012286 -0.016872 0.005182
0.016948 -0.012211 0.005182
0.019946 -0.006326 0.005182
0.020979 0.000189 0.005182
0.019946 0.006704 0.005182
0.016948 0.012589 0.005182
0.012286 0.017249 0.005182
0.006402 0.020244 0.005182
-0.000113 0.021281 0.005182
-0.006633 0.020244 0.005182
-0.012513 0.017249 0.005182
-0.017174 0.012589 0.005182
-0.020172 0.006704 0.005182
-0.021206 0.000189 0.005182
-0.020172 -0.006326 0.005182
0.023773 -0.007577 0.005182
-0.024000 -0.007577 0.005182
-0.005011 -0.003342 0.478016
-0.005864 -0.001674 0.478016
0.005568 0.002042 0.478016
-0.003681 -0.004677 0.478016
-0.002004 -0.005529 0.478016
-0.000146 -0.005826 0.478016
0.001708 -0.005529 0.478016
0.003385 -0.004677 0.478016
0.004715 -0.003342 0.478016
0.005568 -0.001674 0.478016
0.005864 0.000189 0.478016
0.003385 0.005054 0.478016
0.004715 0.003720 0.478016
0.001708 0.005907 0.478016
-0.000146 0.006203 0.478016
-0.002004 0.005907 0.478016
-0.003681 0.005054 0.478016
-0.005011 0.003720 0.478016
-0.005864 0.002042 0.478016
-0.006160 0.000189 0.478016
-0.005864 -0.001674 -0.011980
-0.005011 -0.003342 -0.011980
0.005568 0.002042 -0.011980
-0.003681 -0.004677 -0.011980
-0.002004 -0.005529 -0.011980
-0.000146 -0.005826 -0.011980
0.001708 -0.005529 -0.011980
0.003385 -0.004677 -0.011980
0.004715 -0.003342 -0.011980
0.005568 -0.001674 -0.011980
0.005864 0.000189 -0.011980
0.004715 0.003720 -0.011980
0.003385 0.005054 -0.011980
0.001708 0.005907 -0.011980
-0.000146 0.006203 -0.011980
-0.002004 0.005907 -0.011980
-0.003681 0.005054 -0.011980
-0.005011 0.003720 -0.011980
-0.005864 0.002042 -0.011980
-0.006160 0.000189 -0.011980
0.006430 0.000180 0.326908
0.006193 0.015767 0.335721
0.006430 0.000180 0.335944
0.006128 0.015656 0.326616
0.010790 0.030744 0.335351
0.009910 0.030771 0.326297
0.022439 0.041170 0.334104
0.020507 0.042189 0.325254
0.037711 0.042884 0.330568
0.035307 0.046729 0.322654
0.048304 0.034301 0.322617
0.048049 0.040447 0.315903
0.048012 0.022903 0.311765
0.049815 0.028945 0.305310
0.043536 0.012561 0.300816
0.045019 0.018705 0.294357
0.044500 0.001254 0.289843
0.042623 0.007520 0.283518
0.053587 -0.006011 0.279200
0.048943 -0.001832 0.272569
0.065815 -0.007067 0.269311
0.060231 -0.005825 0.262282
0.078103 -0.004658 0.259789
0.072682 -0.005075 0.252593
0.090420 -0.002109 0.250336
0.085003 -0.002193 0.243154
0.102917 -0.000423 0.240898
0.097537 -0.000738 0.233683
0.115539 -0.000025 0.231496
0.122823 -0.000423 0.214884
0.110169 -0.000247 0.224258
0.135459 -0.000479 0.205538
0.128194 -0.000247 0.222136
0.006568 0.015805 0.344766
0.006430 0.000189 0.344984
0.011911 0.030530 0.344359
0.024686 0.039492 0.342769
0.039704 0.038241 0.338144
0.047739 0.028056 0.329202
0.045876 0.017018 0.318187
0.043045 0.006129 0.307187
0.047790 -0.004288 0.296307
0.058929 -0.008689 0.286076
0.071315 -0.007290 0.276470
0.083464 -0.004083 0.267027
0.095767 -0.001414 0.257583
0.108287 -0.000025 0.248154
0.120909 0.000161 0.238761
0.133569 -0.000275 0.229415
0.140839 -0.000330 0.212804
0.006981 0.015805 0.353802
0.006430 0.000189 0.354020
0.013232 0.030178 0.353343
0.027128 0.037175 0.351249
0.041182 0.032976 0.345457
0.046483 0.021819 0.335684
0.043842 0.011069 0.324563
0.044013 -0.000275 0.313586
0.052303 -0.008587 0.303026
0.064503 -0.009940 0.293166
0.076671 -0.006808 0.283708
0.088724 -0.003185 0.274283
0.101091 -0.000822 0.264840
0.113643 0.000290 0.255424
0.126275 0.000254 0.246046
0.138920 -0.000237 0.236709
0.151584 -0.000173 0.227400
0.007380 0.015805 0.362828
0.006430 0.000189 0.363055
0.014821 0.029603 0.362295
0.029607 0.034098 0.359501
0.041933 0.027185 0.352500
0.044690 0.015712 0.342055
0.042623 0.004823 0.330888
0.046733 -0.006030 0.320138
0.057623 -0.011256 0.310014
0.069999 -0.009857 0.300408
0.081852 -0.005622 0.290988
0.093927 -0.002109 0.281549
0.106397 -0.000367 0.272115
0.118982 0.000476 0.262708
0.131613 0.000049 0.253344
0.144263 -0.000349 0.244011
0.156940 -0.000099 0.234716
0.007801 0.015786 0.371859
0.006430 0.000189 0.372096
0.016721 0.028677 0.371192
0.031915 0.030169 0.367476
0.041725 0.020966 0.359214
0.042164 0.009744 0.348265
0.042864 -0.001581 0.337310
0.051010 -0.010404 0.326996
0.063220 -0.012229 0.317223
0.075272 -0.008782 0.307720
0.086893 -0.003973 0.298267
0.099108 -0.000942 0.288810
0.111661 0.000245 0.279390
0.124297 0.000605 0.270002
0.136923 -0.000145 0.260651
0.149597 -0.000386 0.251328
0.162279 0.000049 0.242042
0.008288 0.015749 0.380890
0.006430 0.000189 0.381131
0.018941 0.027231 0.379987
0.033773 0.025331 0.375084
0.040603 0.014664 0.365646
0.040594 0.003543 0.354543
0.045241 -0.007327 0.344011
0.056260 -0.012860 0.334137
0.068683 -0.011720 0.324545
0.080290 -0.006985 0.315032
0.091889 -0.002156 0.305528
0.104284 0.000152 0.296066
0.116911 0.000930 0.286660
0.129570 0.000421 0.277295
0.142229 -0.000247 0.267958
0.154902 -0.000126 0.258644
0.167603 0.000235 0.249372
0.008913 0.015674 0.389935
0.006430 0.000189 0.390167
0.021457 0.025007 0.388596
0.034825 0.019604 0.382220
0.038629 0.008455 0.371855
0.040714 -0.002786 0.361040
0.049402 -0.011497 0.351049
0.061779 -0.013416 0.341467
0.073850 -0.010153 0.331899
0.085091 -0.004649 0.322311
0.096921 -0.000441 0.312766
0.109483 0.001013 0.303327
0.122165 0.000865 0.293944
0.134829 0.000273 0.284593
0.147511 -0.000071 0.275265
0.160194 0.000133 0.265961
0.172913 0.000319 0.256699
0.009844 0.015517 0.398999
0.006430 0.000189 0.399207
0.024084 0.021753 0.396881
0.034857 0.013404 0.388939
0.037114 0.002190 0.378147
0.043059 -0.008356 0.367935
0.054574 -0.013537 0.358375
0.067107 -0.012461 0.348853
0.078650 -0.007735 0.339197
0.089850 -0.002193 0.329531
0.102036 0.001023 0.319999
0.114719 0.001384 0.310597
0.127401 0.000875 0.301228
0.140084 0.000199 0.291886
0.152780 0.000059 0.282568
0.165481 0.000254 0.273273
0.178205 0.000309 0.264020
0.011276 0.015137 0.408067
0.006425 0.000189 0.408243
0.026451 0.017287 0.404693
0.034005 0.007148 0.395384
0.037596 -0.003954 0.384806
0.047285 -0.012035 0.375196
0.059939 -0.013471 0.365817
0.072029 -0.010219 0.356193
0.083145 -0.004713 0.346397
0.094701 0.000115 0.336722
0.107245 0.001940 0.327242
0.119946 0.001514 0.317863
0.132632 0.000717 0.308512
0.145329 0.000022 0.299176
0.158039 0.000152 0.289866
0.170745 0.000374 0.280581
0.183487 0.000439 0.271332
0.013403 0.014239 0.417075
0.006425 0.000189 0.417279
0.028023 0.011764 0.411987
0.032865 0.000865 0.401788
0.040182 -0.009162 0.391951
0.052419 -0.013332 0.382711
0.064981 -0.011637 0.373222
0.076454 -0.006966 0.363370
0.087639 -0.001627 0.353519
0.099780 0.001765 0.343923
0.112476 0.002264 0.334508
0.125172 0.001412 0.325138
0.137845 0.000309 0.315787
0.150565 0.000068 0.306464
0.163284 0.000374 0.297160
0.176008 0.000615 0.287883
0.188751 0.000680 0.278634
0.016151 0.012348 0.425879
0.006420 0.000189 0.426315
0.028495 0.005814 0.418877
0.033662 -0.005066 0.408572
0.044648 -0.012026 0.399462
0.057553 -0.012072 0.390200
0.069359 -0.008207 0.380362
0.080592 -0.003185 0.370381
0.092384 0.000995 0.360632
0.104979 0.002719 0.351161
0.117698 0.002033 0.341777
0.130357 0.000717 0.332408
0.143077 0.000004 0.323062
0.155810 0.000207 0.313744
0.168539 0.000578 0.304449
0.181267 0.000624 0.295177
0.194010 0.000569 0.285928
0.019010 0.008752 0.434238
0.006411 0.000189 0.435350
0.027568 -0.000571 0.425439
0.036673 -0.009653 0.416088
0.049787 -0.011729 0.407112
0.061927 -0.008560 0.397335
0.073183 -0.003815 0.387211
0.084961 0.000245 0.377355
0.097430 0.002672 0.367814
0.110201 0.002728 0.358422
0.122860 0.001236 0.349029
0.135556 0.000180 0.339669
0.148303 0.000059 0.330332
0.161046 0.000393 0.321018
0.173789 0.000522 0.311732
0.186517 0.000393 0.302460
0.199269 0.000281 0.293217
0.020655 0.003914 0.442064
0.006402 0.000199 0.444381
0.028699 -0.006169 0.432264
0.041590 -0.010515 0.423822
0.054124 -0.008069 0.414183
0.065393 -0.003546 0.403910
0.077255 0.000263 0.393985
0.089803 0.002515 0.384454
0.102611 0.003043 0.375061
0.115344 0.001932 0.365664
0.128027 0.000486 0.356276
0.140783 -0.000061 0.346921
0.153540 0.000115 0.337593
0.166292 0.000328 0.328289
0.179039 0.000309 0.319007
0.191786 0.000281 0.309745
0.204529 0.000281 0.300505
0.020118 -0.002323 0.449135
0.006430 0.000199 0.453412
0.032601 -0.008272 0.440563
0.045802 -0.006660 0.430957
0.057099 -0.002407 0.420467
0.069230 0.000958 0.410514
0.081995 0.002746 0.401042
0.094896 0.003247 0.391668
0.107726 0.002441 0.382285
0.120465 0.001125 0.372883
0.133225 0.000123 0.363510
0.146010 0.000032 0.354168
0.158785 0.000152 0.344849
0.171551 0.000216 0.335559
0.185010 0.000290 0.325905
0.197054 0.000309 0.317034
0.209793 0.000476 0.307794
0.021795 -0.004111 0.456679
0.006467 0.000170 0.462434
0.035969 -0.003453 0.447370
0.047975 -0.000283 0.436778
0.060810 0.002181 0.426982
0.073937 0.003164 0.417631
0.087004 0.003238 0.408280
0.099970 0.002710 0.398897
0.112805 0.001514 0.389491
0.125617 0.000448 0.380107
0.138438 0.000106 0.370752
0.151246 0.000115 0.361420
0.169462 0.000250 0.343322
0.215070 0.000708 0.315097
0.202323 0.000522 0.324327
0.024779 0.001384 0.460998
0.006559 0.000180 0.471405
0.052039 0.003803 0.442870
0.038115 0.002913 0.451790
0.065615 0.003581 0.433821
0.078909 0.003016 0.424582
0.092027 0.002505 0.415259
0.105020 0.001782 0.405917
0.117930 0.000856 0.396566
0.130802 0.000161 0.387234
0.143656 0.000004 0.377916
0.169276 0.000245 0.359344
0.156477 0.000049 0.368620
0.184376 0.000423 0.348411
0.007648 -0.023703 0.005182
0.146214 -0.000145 0.220092
0.220352 0.000720 0.322404
3 0 1 2
3 1 3 2
3 4 5 3
3 5 6 7
3 7 8 9
3 9 10 11
3 11 12 13
3 12 14 13
3 14 15 16
3 16 17 18
3 18 19 20
3 20 21 22
3 22 23 24
3 23 25 24
3 26 27 25
3 28 29 27
3 30 31 29
3 32 33 31
3 34 35 33
3 36 0 35
3 2 37 0
3 3 37 2
3 5 37 3
3 7 37 5
3 9 37 7
3 11 37 9
3 13 37 11
3 14 37 13
3 16 37 14
3 18 37 16
3 20 37 18
3 22 37 20
3 24 37 22
3 25 37 24
3 27 37 25
3 29 37 27
3 31 37 29
3 33 37 31
3 35 37 33
3 0 37 35
3 38 39 40
3 40 39 41
3 41 39 42
3 43 39 44
3 44 39 45
3 45 39 46
3 46 39 47
3 47 39 48
3 48 39 49
3 49 39 50
3 50 39 51
3 51 39 52
3 52 39 53
3 53 39 54
3 54 39 55
3 55 39 56
3 56 39 57
3 57 39 38
3 58 59 60
3 60 61 62
3 61 63 62
3 64 65 63
3 65 66 67
3 67 68 69
3 68 70 69
3 71 72 70
3 72 73 74
3 73 75 74
3 75 76 77
3 77 78 79
3 78 80 79
3 81 82 80
3 82 83 84
3 84 85 86
3 85 87 86
3 88 89 87
3 89 90 91
3 90 58 91
3 38 59 92
3 40 61 59
3 41 64 61
3 42 93 64
3 39 66 93
3 43 68 66
3 44 71 68
3 45 94 71
3 46 73 94
3 47 95 73
3 48 76 95
3 49 78 76
3 50 81 78
3 51 96 81
3 52 83 96
3 53 85 83
3 54 88 85
3 88 56 97
3 97 57 90
3 57 92 90
3 98 70 99
3 100 69 98
3 65 100 101
3 63 101 102
3 62 102 103
3 60 103 104
3 58 104 105
3 91 105 106
3 89 106 107
3 87 107 108
3 86 108 109
3 84 109 110
3 82 110 111
3 80 111 112
3 79 112 113
3 77 113 114
3 75 114 115
3 74 115 116
3 72 116 117
3 70 117 99
3 104 118 105
3 103 1 104
3 102 4 103
3 6 102 101
3 100 6 101
3 10 100 98
3 12 98 99
3 119 99 117
3 15 117 116
3 17 116 115
3 19 115 114
3 21 114 113
3 112 21 113
3 111 23 112
3 28 111 110
3 109 28 110
3 108 30 109
3 107 32 108
3 106 34 107
3 105 36 106
3 120 121 122
3 123 120 122
3 124 123 122
3 125 124 122
3 126 125 122
3 127 126 122
3 128 127 122
3 129 128 122
3 130 129 122
3 131 132 122
3 133 131 122
3 134 133 122
3 135 134 122
3 136 135 122
3 137 136 122
3 138 137 122
3 139 138 122
3 121 139 122
3 140 141 142
3 141 143 142
3 143 144 142
3 144 145 142
3 145 146 142
3 146 147 142
3 147 148 142
3 148 149 142
3 149 150 142
3 151 152 142
3 152 153 142
3 153 154 142
3 154 155 142
3 155 156 142
3 156 157 142
3 157 158 142
3 158 159 142
3 159 140 142
3 125 144 124
3 124 143 123
3 123 141 120
3 120 140 121
3 121 159 139
3 139 158 138
3 138 157 137
3 137 156 136
3 136 155 135
3 135 154 134
3 134 153 133
3 133 152 131
3 131 151 132
3 132 142 122
3 122 150 130
3 130 149 129
3 129 148 128
3 128 147 127
3 127 146 126
3 126 145 125
3 160 161 162
3 163 164 161
3 165 166 164
3 167 168 166
3 169 170 168
3 171 172 170
3 173 174 172
3 175 176 174
3 177 178 176
3 179 180 178
3 181 182 180
3 183 184 182
3 185 186 184
3 187 188 186
3 189 188 190
3 191 192 189
3 162 193 194
3 161 195 193
3 164 196 195
3 166 197 196
3 168 198 197
3 170 199 198
3 172 200 199
3 174 201 200
3 176 202 201
3 178 203 202
3 180 204 203
3 182 205 204
3 184 206 205
3 186 207 206
3 188 208 207
3 209 208 192
3 194 210 211
3 193 212 210
3 195 213 212
3 196 214 213
3 197 215 214
3 198 216 215
3 199 217 216
3 200 218 217
3 201 219 218
3 202 220 219
3 203 221 220
3 204 222 221
3 205 223 222
3 206 224 223
3 207 225 224
3 208 226 225
3 211 227 228
3 210 229 227
3 212 230 229
3 213 231 230
3 214 232 231
3 215 233 232
3 216 234 233
3 217 235 234
3 218 236 235
3 219 237 236
3 220 238 237
3 221 239 238
3 222 240 239
3 223 241 240
3 224 242 241
3 225 243 242
3 228 244 245
3 227 246 244
3 229 247 246
3 230 248 247
3 231 249 248
3 232 250 249
3 233 251 250
3 234 252 251
3 235 253 252
3 236 254 253
3 237 255 254
3 238 256 255
3 239 257 256
3 240 258 257
3 241 259 258
3 242 260 259
3 245 261 262
3 244 263 261
3 246 264 263
3 247 265 264
3 248 266 265
3 249 267 266
3 250 268 267
3 251 269 268
3 252 270 269
3 253 271 270
3 254 272 271
3 255 273 272
3 256 274 273
3 257 275 274
3 258 276 275
3 259 277 276
3 262 278 279
3 261 280 278
3 263 281 280
3 264 282 281
3 265 283 282
3 266 284 283
3 267 285 284
3 268 286 285
3 269 287 286
3 270 288 287
3 271 289 288
3 272 290 289
3 273 291 290
3 274 292 291
3 275 293 292
3 276 294 293
3 279 295 296
3 278 297 295
3 280 298 297
3 281 299 298
3 282 300 299
3 283 301 300
3 284 302 301
3 285 303 302
3 286 304 303
3 287 305 304
3 288 306 305
3 289 307 306
3 290 308 307
3 291 309 308
3 292 310 309
3 293 311 310
3 296 312 313
3 295 314 312
3 297 315 314
3 298 316 315
3 299 317 316
3 300 318 317
3 301 319 318
3 302 320 319
3 303 321 320
3 304 322 321
3 305 323 322
3 306 324 323
3 307 325 324
3 308 326 325
3 309 327 326
3 310 328 327
3 313 329 330
3 312 331 329
3 314 332 331
3 315 333 332
3 316 334 333
3 317 335 334
3 318 336 335
3 319 337 336
3 320 338 337
3 321 339 338
3 322 340 339
3 323 341 340
3 324 342 341
3 325 343 342
3 326 344 343
3 327 345 344
3 330 346 347
3 329 348 346
3 331 349 348
3 332 350 349
3 333 351 350
3 334 352 351
3 335 353 352
3 336 354 353
3 337 355 354
3 338 356 355
3 339 357 356
3 340 358 357
3 341 359 358
3 342 360 359
3 343 361 360
3 344 362 361
3 347 363 364
3 346 365 363
3 348 366 365
3 349 367 366
3 350 368 367
3 351 369 368
3 352 370 369
3 353 371 370
3 354 372 371
3 355 373 372
3 356 374 373
3 357 375 374
3 358 376 375
3 359 377 376
3 360 378 377
3 361 379 378
3 364 380 381
3 363 382 380
3 365 383 382
3 366 384 383
3 367 385 384
3 368 386 385
3 369 387 386
3 370 388 387
3 371 389 388
3 372 390 389
3 373 391 390
3 374 392 391
3 375 393 392
3 376 394 393
3 377 395 394
3 378 396 395
3 381 397 398
3 380 399 397
3 382 400 399
3 383 401 400
3 384 402 401
3 385 403 402
3 386 404 403
3 387 405 404
3 388 406 405
3 389 407 406
3 390 408 407
3 391 409 408
3 392 410 409
3 393 411 410
3 394 412 411
3 395 413 412
3 398 414 415
3 397 416 414
3 399 417 416
3 400 418 417
3 401 419 418
3 402 420 419
3 403 421 420
3 404 422 421
3 405 423 422
3 406 424 423
3 407 425 424
3 408 426 425
3 410 411 426
3 412 427 428
3 415 429 430
3 416 429 414
3 416 431 432
3 418 431 417
3 419 433 418
3 420 434 419
3 421 435 420
3 422 436 421
3 423 437 422
3 424 438 423
3 425 439 424
3 425 440 441
3 428 442 411
3 0 118 1
3 1 4 3
3 4 443 5
3 5 443 6
3 7 6 8
3 9 8 10
3 11 10 12
3 12 119 14
3 14 119 15
3 16 15 17
3 18 17 19
3 20 19 21
3 22 21 23
3 23 26 25
3 26 28 27
3 28 30 29
3 30 32 31
3 32 34 33
3 34 36 35
3 36 118 0
3 58 92 59
3 60 59 61
3 61 64 63
3 64 93 65
3 65 93 66
3 67 66 68
3 68 71 70
3 71 94 72
3 72 94 73
3 73 95 75
3 75 95 76
3 77 76 78
3 78 81 80
3 81 96 82
3 82 96 83
3 84 83 85
3 85 88 87
3 88 97 89
3 89 97 90
3 90 92 58
3 38 40 59
3 40 41 61
3 41 42 64
3 42 39 93
3 39 43 66
3 43 44 68
3 44 45 71
3 45 46 94
3 46 47 73
3 47 48 95
3 48 49 76
3 49 50 78
3 50 51 81
3 51 52 96
3 52 53 83
3 53 54 85
3 54 55 88
3 88 55 56
3 97 56 57
3 57 38 92
3 98 69 70
3 100 67 69
3 65 67 100
3 63 65 101
3 62 63 102
3 60 62 103
3 58 60 104
3 91 58 105
3 89 91 106
3 87 89 107
3 86 87 108
3 84 86 109
3 82 84 110
3 80 82 111
3 79 80 112
3 77 79 113
3 75 77 114
3 74 75 115
3 72 74 116
3 70 72 117
3 104 1 118
3 103 4 1
3 102 443 4
3 6 443 102
3 100 8 6
3 10 8 100
3 12 10 98
3 119 12 99
3 15 119 117
3 17 15 116
3 19 17 115
3 21 19 114
3 112 23 21
3 111 26 23
3 28 26 111
3 109 30 28
3 108 32 30
3 107 34 32
3 106 36 34
3 105 118 36
3 125 145 144
3 124 144 143
3 123 143 141
3 120 141 140
3 121 140 159
3 139 159 158
3 138 158 157
3 137 157 156
3 136 156 155
3 135 155 154
3 134 154 153
3 133 153 152
3 131 152 151
3 132 151 142
3 122 142 150
3 130 150 149
3 129 149 148
3 128 148 147
3 127 147 146
3 126 146 145
3 160 163 161
3 163 165 164
3 165 167 166
3 167 169 168
3 169 171 170
3 171 173 172
3 173 175 174
3 175 177 176
3 177 179 178
3 179 181 180
3 181 183 182
3 183 185 184
3 185 187 186
3 187 190 188
3 189 192 188
3 191 209 192
3 162 161 193
3 161 164 195
3 164 166 196
3 166 168 197
3 168 170 198
3 170 172 199
3 172 174 200
3 174 176 201
3 176 178 202
3 178 180 203
3 180 182 204
3 182 184 205
3 184 186 206
3 186 188 207
3 188 192 208
3 209 444 208
3 194 193 210
3 193 195 212
3 195 196 213
3 196 197 214
3 197 198 215
3 198 199 216
3 199 200 217
3 200 201 218
3 201 202 219
3 202 203 220
3 203 204 221
3 204 205 222
3 205 206 223
3 206 207 224
3 207 208 225
3 208 444 226
3 211 210 227
3 210 212 229
3 212 213 230
3 213 214 231
3 214 215 232
3 215 216 233
3 216 217 234
3 217 218 235
3 218 219 236
3 219 220 237
3 220 221 238
3 221 222 239
3 222 223 240
3 223 224 241
3 224 225 242
3 225 226 243
3 228 227 244
3 227 229 246
3 229 230 247
3 230 231 248
3 231 232 249
3 232 233 250
3 233 234 251
3 234 235 252
3 235 236 253
3 236 237 254
3 237 238 255
3 238 239 256
3 239 240 257
3 240 241 258
3 241 242 259
3 242 243 260
3 245 244 261
3 244 246 263
3 246 247 264
3 247 248 265
3 248 249 266
3 249 250 267
3 250 251 268
3 251 252 269
3 252 253 270
3 253 254 271
3 254 255 272
3 255 256 273
3 256 257 274
3 257 258 275
3 258 259 276
3 259 260 277
3 262 261 278
3 261 263 280
3 263 264 281
3 264 265 282
3 265 266 283
3 266 267 284
3 267 268 285
3 268 269 286
3 269 270 287
3 270 271 288
3 271 272 289
3 272 273 290
3 273 274 291
3 274 275 292
3 275 276 293
3 276 277 294
3 279 278 295
3 278 280 297
3 280 281 298
3 281 282 299
3 282 283 300
3 283 284 301
3 284 285 302
3 285 286 303
3 286 287 304
3 287 288 305
3 288 289 306
3 289 290 307
3 290 291 308
3 291 292 309
3 292 293 310
3 293 294 311
3 296 295 312
3 295 297 314
3 297 298 315
3 298 299 316
3 299 300 317
3 300 301 318
3 301 302 319
3 302 303 320
3 303 304 321
3 304 305 322
3 305 306 323
3 306 307 324
3 307 308 325
3 308 309 326
3 309 310 327
3 310 311 328
3 313 312 329
3 312 314 331
3 314 315 332
3 315 316 333
3 316 317 334
3 317 318 335
3 318 319 336
3 319 320 337
3 320 321 338
3 321 322 339
3 322 323 340
3 323 324 341
3 324 325 342
3 325 326 343
3 326 327 344
3 327 328 345
3 330 329 346
3 329 331 348
3 331 332 349
3 332 333 350
3 333 334 351
3 334 335 352
3 335 336 353
3 336 337 354
3 337 338 355
3 338 339 356
3 339 340 357
3 340 341 358
3 341 342 359
3 342 343 360
3 343 344 361
3 344 345 362
3 347 346 363
3 346 348 365
3 348 349 366
3 349 350 367
3 350 351 368
3 351 352 369
3 352 353 370
3 353 354 371
3 354 355 372
3 355 356 373
3 356 357 374
3 357 358 375
3 358 359 376
3 359 360 377
3 360 361 378
3 361 362 379
3 364 363 380
3 363 365 382
3 365 366 383
3 366 367 384
3 367 368 385
3 368 369 386
3 369 370 387
3 370 371 388
3 371 372 389
3 372 373 390
3 373 374 391
3 374 375 392
3 375 376 393
3 376 377 394
3 377 378 395
3 378 379 396
3 381 380 397
3 380 382 399
3 382 383 400
3 383 384 401
3 384 385 402
3 385 386 403
3 386 387 404
3 387 388 405
3 388 389 406
3 389 390 407
3 390 391 408
3 391 392 409
3 392 393 410
3 393 394 411
3 394 395 412
3 395 396 413
3 398 397 414
3 397 399 416
3 399 400 417
3 400 401 418
3 401 402 419
3 402 403 420
3 403 404 421
3 404 405 422
3 405 406 423
3 406 407 424
3 407 408 425
3 408 409 426
3 409 410 426
3 411 412 428
3 412 413 427
3 415 414 429
3 416 432 429
3 416 417 431
3 418 433 431
3 419 434 433
3 420 435 434
3 421 436 435
3 422 437 436
3 423 438 437
3 424 439 438
3 425 441 439
3 425 426 440
3 426 442 440
3 426 411 442
3 428 445 442
3 428 427 445
